<svg width="24" height="20" viewBox="0 0 24 20" fill="none" xmlns="http://www.w3.org/2000/svg">
<path d="M1.5348 19.3917C1.18622 19.3917 0.721449 19.168 0.605256 18.8324C0.256676 18.3851 0.372869 17.714 0.953836 17.3785L5.95015 14.3587C6.87969 13.6876 8.15782 13.6876 9.31975 14.135C10.5979 14.6942 13.7351 14.6942 15.0132 14.135C16.059 13.5758 17.3371 13.6876 18.2666 14.2468L23.1468 17.3785C23.7277 17.714 23.8439 18.3851 23.4953 18.9443C23.1468 19.5035 22.4496 19.6153 21.8686 19.2798L16.9885 16.1482C16.7561 16.0363 16.4075 15.9245 16.059 16.1482C14.1999 17.0429 10.2493 17.1548 8.27401 16.26C7.92543 16.0363 7.46066 16.1482 7.22827 16.26L2.23196 19.2798C1.99958 19.3917 1.76719 19.3917 1.5348 19.3917Z" fill="white"/>
<path d="M11.8761 12.1219C8.62266 12.1219 6.06641 9.66132 6.06641 6.52969C6.06641 3.39806 8.62266 0.9375 11.8761 0.9375C15.1295 0.9375 17.6857 3.39806 17.6857 6.52969C17.6857 9.66132 15.1295 12.1219 11.8761 12.1219ZM11.8761 3.17438C9.90079 3.17438 8.39027 4.62835 8.39027 6.52969C8.39027 8.43103 9.90079 9.885 11.8761 9.885C13.8514 9.885 15.3619 8.43103 15.3619 6.52969C15.3619 4.62835 13.8514 3.17438 11.8761 3.17438Z" fill="white"/>
</svg>
