<svg width="18" height="18" viewBox="0 0 18 18" fill="none" xmlns="http://www.w3.org/2000/svg">
<circle cx="9" cy="9" r="9" fill="#EDEDED"/>
<path d="M9.60799 7.8543H8.41353L8.22539 12.2727H9.79613L9.60799 7.8543ZM8.18164 6.47771C8.18164 6.69678 8.25894 6.87589 8.41353 7.01503C8.57104 7.15713 8.76647 7.22818 8.99982 7.22818C9.23317 7.22818 9.42714 7.15713 9.58174 7.01503C9.73925 6.87589 9.818 6.69678 9.818 6.47771C9.818 6.25864 9.73925 6.07806 9.58174 5.93596C9.42714 5.79682 9.23317 5.72725 8.99982 5.72725C8.76647 5.72725 8.57104 5.79682 8.41353 5.93596C8.25894 6.07806 8.18164 6.25864 8.18164 6.47771Z" fill="#333333"/>
</svg>
