<svg width="18" height="17" viewBox="0 0 18 17" fill="none" xmlns="http://www.w3.org/2000/svg">
<path d="M14.4 16.1501H3.6C1.62 16.1501 0 14.5301 0 12.5501V2.6501C0 1.6601 0.81 0.850098 1.8 0.850098H5.13C6.66 0.850098 8.1 1.5701 9 2.9201C9.27 3.2801 9.72 3.5501 10.17 3.5501H14.4C16.38 3.5501 18 5.1701 18 7.1501V12.5501C18 14.5301 16.38 16.1501 14.4 16.1501ZM1.8 2.6501V12.5501C1.8 13.5401 2.61 14.3501 3.6 14.3501H14.4C15.39 14.3501 16.2 13.5401 16.2 12.5501V7.1501C16.2 6.1601 15.39 5.3501 14.4 5.3501H10.17C9.18 5.3501 8.19 4.8101 7.56 3.9101C6.93 3.1001 6.03 2.6501 5.04 2.6501H1.8Z" fill="#7D8B95"/>
</svg>
