<svg width="18" height="18" viewBox="0 0 18 18" fill="none" xmlns="http://www.w3.org/2000/svg">
<path d="M8.9998 11.7C7.4698 11.7 6.2998 10.53 6.2998 9.00005C6.2998 7.47005 7.4698 6.30005 8.9998 6.30005C10.5298 6.30005 11.6998 7.47005 11.6998 9.00005C11.6998 10.53 10.5298 11.7 8.9998 11.7ZM8.9998 8.10005C8.4598 8.10005 8.0998 8.46005 8.0998 9.00005C8.0998 9.54005 8.4598 9.90005 8.9998 9.90005C9.5398 9.90005 9.8998 9.54005 9.8998 9.00005C9.8998 8.46005 9.5398 8.10005 8.9998 8.10005Z" fill="white"/>
<path d="M9 18C8.01 18 7.2 17.19 7.2 16.2V16.02C7.2 15.93 7.2 15.48 6.75 15.21C6.57 15.12 6.39 15.03 6.21 14.94C5.58 14.76 5.31 15.21 5.31 15.21L5.22 15.3C4.5 16.02 3.33 16.02 2.7 15.3C1.98 14.58 1.98 13.5 2.7 12.78L2.79 12.69C2.88 12.6 3.24 12.33 3.06 11.79C2.97 11.61 2.97 11.43 2.79 11.25C2.52 10.71 1.98 10.8 1.89 10.8H1.8C0.81 10.8 0 9.99 0 9C0 8.01 0.81 7.2 1.8 7.2H1.98C2.07 7.2 2.52 7.2 2.79 6.75C2.88 6.57 2.97 6.39 3.06 6.21C3.15 5.67 2.88 5.31 2.79 5.31L2.61 5.22C1.89 4.5 1.89 3.42 2.61 2.7C3.33 1.98 4.5 1.98 5.13 2.7L5.22 2.79C5.22 2.88 5.58 3.24 6.12 3.06C6.3 2.97 6.48 2.97 6.66 2.79C7.29 2.52 7.2 1.98 7.2 1.89V1.8C7.2 0.81 8.01 0 9 0C9.99 0 10.8 0.81 10.8 1.8V1.98C10.8 2.07 10.8 2.52 11.25 2.79C11.43 2.88 11.61 2.97 11.79 3.06C12.42 3.24 12.69 2.79 12.69 2.79L12.78 2.7C13.5 1.98 14.67 1.98 15.3 2.7C16.02 3.42 16.02 4.5 15.3 5.22L15.21 5.31C15.12 5.4 14.76 5.67 14.94 6.21C15.03 6.39 15.03 6.57 15.21 6.75C15.48 7.29 16.02 7.2 16.11 7.2H16.2C17.19 7.2 18 8.01 18 9C18 9.99 17.19 10.8 16.2 10.8H16.02C15.93 10.8 15.48 10.8 15.21 11.25C15.12 11.43 15.03 11.61 14.94 11.79C14.85 12.33 15.12 12.69 15.21 12.69L15.3 12.78C16.02 13.5 16.02 14.58 15.3 15.3C14.58 16.02 13.41 16.02 12.78 15.3L12.69 15.21C12.6 15.12 12.33 14.76 11.79 14.94C11.61 15.03 11.43 15.03 11.25 15.21C10.8 15.48 10.8 15.93 10.8 16.02V16.11C10.8 17.19 9.99 18 9 18ZM5.94 13.14C6.12 13.14 6.39 13.14 6.57 13.23C6.93 13.32 7.38 13.5 7.74 13.68C8.64 14.22 8.91 15.03 9 15.66C9.09 15.03 9.36 14.22 10.26 13.68C10.62 13.5 10.98 13.32 11.43 13.23C12.42 12.96 13.23 13.32 13.77 13.77C13.32 13.23 13.05 12.42 13.23 11.43C13.32 11.07 13.5 10.62 13.68 10.26C14.22 9.36 15.03 9.09 15.66 9C15.03 8.91 14.22 8.64 13.68 7.74C13.5 7.38 13.32 7.02 13.23 6.57C12.96 5.58 13.32 4.77 13.77 4.23C13.23 4.68 12.42 4.95 11.43 4.77C11.07 4.68 10.62 4.5 10.26 4.32C9.36 3.78 9.09 2.97 9 2.34C8.91 2.97 8.64 3.78 7.74 4.32C7.38 4.5 7.02 4.68 6.57 4.77C5.58 5.04 4.77 4.68 4.23 4.23C4.68 4.77 4.95 5.58 4.77 6.57C4.68 7.02 4.5 7.38 4.32 7.74C3.78 8.64 2.97 8.91 2.34 9C2.97 9.09 3.78 9.36 4.32 10.26C4.5 10.62 4.68 10.98 4.77 11.43C5.04 12.42 4.68 13.23 4.23 13.77C4.68 13.41 5.22 13.14 5.94 13.14Z" fill="white"/>
</svg>
