<svg width="19" height="14" viewBox="0 0 19 14" fill="none" xmlns="http://www.w3.org/2000/svg">
<path d="M14.875 14H3.5C1.575 14 0 12.425 0 10.5V3.5C0 1.575 1.575 0 3.5 0H14.875C16.8 0 18.375 1.575 18.375 3.5V10.5C18.375 12.425 16.8 14 14.875 14ZM3.5 1.75C2.5375 1.75 1.75 2.5375 1.75 3.5V10.5C1.75 11.4625 2.5375 12.25 3.5 12.25H14.875C15.8375 12.25 16.625 11.4625 16.625 10.5V3.5C16.625 2.5375 15.8375 1.75 14.875 1.75H3.5Z" fill="#7D8B95"/>
<path d="M5.25 10.5H3.5C2.975 10.5 2.625 10.15 2.625 9.625C2.625 9.1 2.975 8.75 3.5 8.75H5.25C5.775 8.75 6.125 9.1 6.125 9.625C6.125 10.15 5.775 10.5 5.25 10.5Z" fill="#7D8B95"/>
<path d="M16.625 6.125H1.75C1.225 6.125 0.875 5.775 0.875 5.25C0.875 4.725 1.225 4.375 1.75 4.375H16.625C17.15 4.375 17.5 4.725 17.5 5.25C17.5 5.775 17.15 6.125 16.625 6.125Z" fill="#7D8B95"/>
</svg>
