<svg width="21" height="21" viewBox="0 0 21 21" fill="none" xmlns="http://www.w3.org/2000/svg">
<path d="M17.874 10.1111H16.3185V7.77778C16.3185 4.35556 13.9074 1.55556 10.874 1.55556C7.84069 1.55556 5.42958 4.35556 5.42958 7.77778V10.1111H3.87402V7.77778C3.87402 3.5 6.98513 0 10.874 0C14.7629 0 17.874 3.5 17.874 7.77778V10.1111Z" fill="#7D8B95"/>
<path d="M4.34117 15.5555C2.4745 15.5555 0.918945 13.9999 0.918945 12.1333C0.918945 10.2666 2.4745 8.71106 4.34117 8.71106C5.50783 8.71106 6.20783 10.0333 6.20783 12.1333C6.20783 14.2333 5.50783 15.5555 4.34117 15.5555ZM4.26339 10.2666C3.25228 10.2666 2.4745 11.1222 2.4745 12.1333C2.4745 13.1444 3.25228 13.9999 4.26339 13.9999C4.41895 13.8444 4.65228 13.1444 4.65228 12.1333C4.65228 11.1222 4.41895 10.4222 4.26339 10.2666Z" fill="#7D8B95"/>
<path d="M16.7856 15.5555C15.6189 15.5555 14.9189 14.2333 14.9189 12.1333C14.9189 11.3555 14.9967 10.5777 15.2301 10.0333C15.6189 8.86661 16.3967 8.71106 16.7856 8.71106C18.6523 8.71106 20.2078 10.2666 20.2078 12.1333C20.2078 13.9999 18.6523 15.5555 16.7856 15.5555ZM16.8634 10.2666C16.7078 10.4222 16.4745 11.1222 16.4745 12.1333C16.4745 13.1444 16.7078 13.8444 16.8634 13.9999C17.8745 13.9999 18.6523 13.1444 18.6523 12.1333C18.6523 11.1222 17.8745 10.2666 16.8634 10.2666Z" fill="#7D8B95"/>
<path d="M13.2075 20.2222C12.7408 20.2222 12.4297 19.9111 12.4297 19.4444C12.4297 18.9778 12.7408 18.6667 13.2075 18.6667C14.9186 18.6667 16.3186 17.2667 16.3186 15.5556V14.7778C16.3186 14.3111 16.6297 14 17.0964 14C17.563 14 17.8741 14.3111 17.8741 14.7778V15.5556C17.8741 18.1222 15.7741 20.2222 13.2075 20.2222Z" fill="#7D8B95"/>
<path d="M12.4296 21C13.2887 21 13.9851 20.3036 13.9851 19.4445C13.9851 18.5854 13.2887 17.8889 12.4296 17.8889C11.5705 17.8889 10.874 18.5854 10.874 19.4445C10.874 20.3036 11.5705 21 12.4296 21Z" fill="#7D8B95"/>
</svg>
